<svg xmlns="http://www.w3.org/2000/svg" xmlns:xlink="http://www.w3.org/1999/xlink" viewBox="0 0 183 64"><defs><path id="a" d="M.262 0h18.702v18.702H.262z"/><path id="c" d="M0 64h194V0H0z"/></defs><g fill="none" fill-rule="evenodd"><path fill="#000" d="M18.238 0L9.119 9.145 0 0v18.496h4.121V9.531l4.998 4.998 4.998-4.998v8.965h4.121zM22 0v18.29h11.335v-4.07h-7.213v-3.091h5.666V7.161h-5.666V4.07h7.213V0zm14 0v18.29h11.23v-4.097h-7.11V0z"/><g transform="translate(-4)"><path fill="#000" d="M53.118.207h6.878c2.987 0 5.435 2.446 5.435 5.435 0 1.288-.49 2.344-1.288 3.143 1.546.823 2.576 2.318 2.576 4.276 0 3.013-2.447 5.435-5.538 5.435h-8.063V.206zM59.533 7.6c1.106 0 1.905-.798 1.905-1.803s-.8-1.83-1.905-1.83h-2.294V7.6h2.294zm1.262 7.109c1.107 0 1.906-.798 1.906-1.803s-.8-1.828-1.906-1.828h-3.556v3.63h3.556z"/><g transform="translate(68)"><mask id="b" fill="#000"><use xlink:href="#a"/></mask><path fill="#000" d="M.262 9.35C.262 4.2 4.462 0 9.613 0c5.151 0 9.351 4.2 9.351 9.35 0 5.153-4.2 9.352-9.35 9.352-5.153 0-9.352-4.2-9.352-9.351m14.555 0c0-2.936-2.242-5.384-5.204-5.384-2.962 0-5.204 2.448-5.204 5.384 0 2.938 2.242 5.384 5.204 5.384 2.962 0 5.204-2.446 5.204-5.384" mask="url(#b)"/></g><path fill="#000" d="M89.383 11.077V.206h4.122v10.922c0 2.216 1.365 3.607 3.373 3.607 2.01 0 3.375-1.391 3.375-3.607V.206h4.122v10.87c0 4.586-3.117 7.626-7.497 7.626s-7.495-3.04-7.495-7.625m22.434 0h-.052v7.418h-4.12V.205h6.903c2.987 0 5.435 2.449 5.435 5.437 0 2.293-1.417 4.276-3.53 5.1l5.95 7.753h-4.919l-5.667-7.418zm2.267-3.478c1.108 0 1.906-.798 1.906-1.803s-.798-1.83-1.906-1.83h-2.319V7.6h2.32zm13.78 1.34v9.557h-4.122V0l11.54 9.763V.207h4.123v18.495zM142.853.207h11.334v4.07h-7.212v3.09h5.667v3.968h-5.666v3.09h7.212v4.07h-11.334z"/><mask id="d" fill="#000"><use xlink:href="#c"/></mask><path fill="#000" d="M4.267 39.565h2.108V23.112H4.267zm5.654-11.587h1.993V29.3c.881-1.113 2.248-1.507 3.591-1.507 2.62 0 4.473 1.831 4.473 4.705v7.068h-1.993v-6.953c0-1.69-1.112-2.943-2.92-2.943-1.62 0-2.733.904-3.15 2.411v7.485H9.92V27.978zm11.611 0h2.063V24.99h1.992v2.99h3.291v1.807h-3.29v7.971h3.267v1.808h-5.26v-9.779h-2.063zm9.131 5.794c0-3.36 2.573-5.98 5.817-5.98s5.608 2.34 5.655 6.467h-9.409c.186 2.06 1.784 3.615 3.893 3.615 1.46 0 2.642-.65 3.382-1.392l1.276 1.392c-.997 1.042-2.642 1.877-4.658 1.877-3.43 0-5.956-2.642-5.956-5.98m2.156-1.251h7.067c-.278-1.9-1.762-2.92-3.522-2.896-1.69 0-3.128 1.135-3.545 2.896m11.773-4.542h1.992v1.367c.789-.996 1.9-1.482 3.198-1.482.279 0 .558.022.812.07v2.062a4.005 4.005 0 0 0-1.112-.14c-1.252 0-2.387.625-2.898 1.831v7.88h-1.992V27.977zm8.088 0h1.992V29.3c.882-1.113 2.25-1.507 3.592-1.507 2.62 0 4.474 1.831 4.474 4.705v7.068h-1.994v-6.953c0-1.69-1.113-2.943-2.92-2.943-1.622 0-2.734.904-3.152 2.411v7.485H52.68V27.978zm21.969 10.428c-.973.88-2.271 1.343-3.685 1.343-3.406 0-5.909-2.617-5.909-5.977 0-3.361 2.503-5.98 5.909-5.98 1.414 0 2.712.465 3.685 1.345v-1.16h1.993v11.588h-1.993v-1.16zm0-2.411v-4.448c-.671-1.09-1.97-1.877-3.638-1.877-2.271 0-3.893 1.807-3.893 4.102 0 2.294 1.622 4.1 3.893 4.1 1.668 0 2.967-.787 3.638-1.877zm3.779-8.017h2.063V24.99h1.992v2.99h3.291v1.807h-3.29v7.971h3.267v1.808h-5.26v-9.779h-2.063zm9.479-3.592c0-.81.626-1.46 1.436-1.46.81 0 1.438.65 1.438 1.46 0 .441-.163.811-.441 1.066h-1.993c-.278-.255-.44-.625-.44-1.066zm.44 15.178h1.993V27.978h-1.993v11.586zm4.543-5.792c0-3.337 2.525-5.98 6.024-5.98 3.476 0 6.002 2.643 6.002 5.98 0 3.337-2.526 5.979-6.002 5.979-3.499 0-6.025-2.642-6.025-5.98m9.965 0c0-2.293-1.576-4.101-3.94-4.101s-3.962 1.808-3.962 4.102c0 2.293 1.598 4.102 3.962 4.102s3.94-1.81 3.94-4.102m4.612-5.794h1.993V29.3c.881-1.113 2.248-1.507 3.591-1.507 2.62 0 4.474 1.831 4.474 4.705v7.068h-1.994v-6.953c0-1.69-1.112-2.943-2.92-2.943-1.62 0-2.733.904-3.15 2.411v7.485h-1.994V27.978zm21.97 10.428c-.973.88-2.27 1.343-3.685 1.343-3.406 0-5.908-2.617-5.908-5.977 0-3.361 2.502-5.98 5.908-5.98 1.414 0 2.712.465 3.685 1.345v-1.16h1.993v11.588h-1.993v-1.16zm0-2.411v-4.448c-.67-1.09-1.97-1.877-3.638-1.877-2.272 0-3.894 1.807-3.894 4.102 0 2.294 1.622 4.1 3.894 4.1 1.668 0 2.967-.787 3.638-1.877zm5.331 3.57h1.993V23.112h-1.993zm17.45-16.639l8.018 16.638h-2.27l-2.04-4.31h-7.416l-2.04 4.31h-2.27l8.018-16.638zm-2.78 10.382h5.561l-2.78-5.886-2.782 5.886zm12.561-5.33h1.993v1.367c.788-.996 1.901-1.482 3.197-1.482.28 0 .558.022.811.07v2.062a3.988 3.988 0 0 0-1.11-.14c-1.252 0-2.388.625-2.898 1.831v7.88h-1.993V27.977zm7.079 0h2.063V24.99h1.992v2.99h3.291v1.807h-3.29v7.971h3.267v1.808h-5.26v-9.779h-2.063zm8.76 9.455l1.576-1.066c.602 1.019 1.344 1.599 2.572 1.599 1.136 0 2.062-.58 2.062-1.46s-.602-1.367-1.969-1.854l-.904-.348c-2.039-.765-2.758-2.04-2.758-3.43 0-1.737 1.506-3.081 3.615-3.081 1.483 0 2.758.672 3.477 2.085l-1.553.905c-.37-.765-1.02-1.206-1.924-1.206-.88 0-1.644.463-1.644 1.274 0 .719.347 1.275 1.691 1.762l.95.348c1.97.718 3.012 1.76 3.012 3.476 0 1.853-1.576 3.313-4.1 3.313-1.716 0-3.177-.764-4.103-2.317M4 45.505h10.819v4.07H8.121v3.09h5.153v3.968H8.121v7.161H4zm13.316 0H28.65v4.07h-7.212v3.09h5.666v3.968h-5.666v3.09h7.212v4.072H17.316zm12.801 14.914l3.117-2.55c.798 1.262 2.113 2.267 3.375 2.267 1.211 0 1.751-.463 1.751-1.314 0-.823-.593-1.339-2.138-2.034l-1.03-.465c-2.756-1.236-4.277-3.271-4.277-5.744 0-3.194 2.653-5.281 5.565-5.281 2.035 0 3.58.49 5.125 2.293l-2.782 2.937c-.928-1.134-1.494-1.366-2.343-1.366-.696 0-1.418.438-1.418 1.263 0 .952.8 1.468 2.473 2.214l.98.439c2.524 1.133 3.992 2.962 3.992 5.487 0 3.297-2.42 5.435-5.82 5.435-2.937 0-5.308-1.211-6.57-3.581m17.335-10.844h-4.38v-4.07h12.906v4.07h-4.404v14.219h-4.122zm10.739 14.22h4.122v-18.29h-4.122zm5.589-18.29h4.585l4.044 9.145 4.044-9.145h4.585L72.41 64zm22.023-.207l9.016 18.496h-4.328l-1.313-2.835h-6.75l-1.313 2.835h-4.328l9.016-18.496zm1.727 12.313l-1.727-3.813-1.726 3.813h3.453zm8.756-12.106h4.12v14.192h7.11v4.097h-11.23z" mask="url(#d)"/></g></g></svg>