<?xml version="1.0" encoding="utf-8"?>
<!-- Generator: Adobe Illustrator 19.2.1, SVG Export Plug-In . SVG Version: 6.00 Build 0)  -->
<svg version="1.1" id="layer" xmlns="http://www.w3.org/2000/svg" xmlns:xlink="http://www.w3.org/1999/xlink" x="0px" y="0px"
	 viewBox="0 0 652 652" style="enable-background:new 0 0 652 652;" xml:space="preserve">
<style type="text/css">
	.st0{fill:#FFCC08;}
</style>
<g>
	<path class="st0" d="M470.6,331.4c0,15.8-9.8,23.3-23.9,23.3c-14.1,0-23.3-7.5-23.3-23.3v-63c0-2.8-0.5-4.1-3.4-5.1
		c-2.3-0.8-6.1-1.4-11.2-1.4c-5.1,0-8.9,0.6-11.2,1.4c-2.9,0.9-3.4,2.3-3.4,5.1v63.9c0,31.6,19.8,48.7,52.4,48.7
		c32.8,0,52.7-17.2,52.7-48.7v-63.9c0-2.8-0.5-4.1-3.4-5.1c-2.3-0.8-6-1.4-11-1.4c-5.1,0-8.7,0.6-11,1.4c-2.9,0.9-3.4,2.3-3.4,5.1
		V331.4z"/>
	<path class="st0" d="M326.6,380.5c5.1,0,8.9-0.6,11.2-1.4c2.9-0.9,3.4-2.3,3.4-5.1v-84.5h30.4c2.9,0,4-1.1,4.8-3.4
		c0.6-1.8,1.2-5.2,1.2-9.5c0-4.3-0.6-7.7-1.2-9.5c-0.8-2.3-1.8-3.4-4.8-3.4h-89.8c-2.9,0-4,1.1-4.8,3.4c-0.6,1.8-1.2,5.2-1.2,9.5
		c0,4.3,0.6,7.7,1.2,9.5c0.8,2.3,1.8,3.4,4.8,3.4h30.4V374c0,2.8,0.5,4.1,3.4,5.1C317.7,379.9,321.6,380.5,326.6,380.5"/>
	<path class="st0" d="M84.4,261.5c-37.3,0-63.5,25.3-63.5,59.8c0,34.5,26.2,59.8,63.5,59.8c37.3,0,63.5-25.3,63.5-59.8
		C147.9,286.8,121.7,261.5,84.4,261.5 M84.4,354.7c-19.3,0-33.1-13.6-33.1-33.4c0-19.8,13.8-33.4,33.1-33.4
		c19.3,0,33.1,13.6,33.1,33.4C117.5,341.1,103.7,354.7,84.4,354.7"/>
	<path class="st0" d="M219.6,263.8h-48c-2.3,0-3.8,1.4-3.8,3.8V374c0,2.8,0.5,4.1,3.4,5.1c2.3,0.8,6.1,1.4,11.2,1.4
		c5.1,0,8.9-0.6,11.2-1.4c2.9-0.9,3.4-2.3,3.4-5.1v-29.4h23c29.9,0,45.8-16.2,45.8-40.2C265.8,279.9,249.8,263.8,219.6,263.8
		 M219.2,320.2h-22.2v-31.6h22.2c10.4,0,17,5.4,17,15.8C236.2,314.6,229.6,320.2,219.2,320.2"/>
	<path class="st0" d="M518.2,367.4c14.9,9.2,34.2,13.6,51.4,13.6c30,0,51.4-14.9,51.4-39.5c0-18.9-13.6-28.7-39.1-33.1l-5.2-0.9
		c-19.5-3.4-24.7-5.8-24.7-11.2c0-6.3,7.2-9.8,19.6-9.8c10,0,19.6,2.2,29.7,6.7c2.4,1.1,4,1.2,5.8-0.6c3.1-3.1,7.5-10.9,9-16.4
		c0.8-2.8-0.2-4.4-2.3-5.5c-12.3-6.1-27.4-9.2-42.8-9.2c-31,0-50,13.8-50.4,36.6c-0.5,20.4,13.5,30.7,38.3,34.5l6,0.9
		c18.9,2.9,24.2,5.2,24.2,11.2c0,6.9-7.4,11.2-20.4,11.2c-12,0-24.1-4-38-11.3c-2.6-1.4-3.8-1.2-5.8,0.8c-3.1,3.1-7.4,11-8.9,16.6
		C515.3,364.7,516.2,366.2,518.2,367.4"/>
</g>
</svg>
